<svg xmlns="http://www.w3.org/2000/svg" viewBox="0 0 100 22.296838070689642" xmlns:xlink="http://www.w3.org/1999/xlink" version="1.1"  ><g transform="translate(40.49693005443041 11.705839987112064) scale(0.11697122127324419)" id="horizontalContainerlessSvgTemplate"><g fill="#FFFFFF"><g transform="translate(-7.88485607008761 51.99874843554443) scale(1.7382839660686968)" fill="#FFFFFF"><g id="line1" fill="#FFFFFF"><path d="M19.512-30.960L32.040 0L30.672 0L18.216-30.744C18.576-30.816 19.008-30.888 19.512-30.960ZM22.104-31.752L34.848 0L33.408 0L20.808-31.248C21.168-31.392 21.600-31.536 22.104-31.752ZM24.336-32.832L37.656 0L36.216 0L23.184-32.256C23.688-32.328 24.048-32.544 24.336-32.832ZM31.032-23.256L40.392 0L39.024 0L25.488-33.408C27.432-34.992 28.368-36.720 28.368-38.664C28.368-41.904 25.632-44.712 22.392-44.712L16.200-44.712L16.200-30.672L16.920-30.672L29.232 0L27.864 0L16.200-28.872L16.200 0L14.904 0L14.904-56.304L22.392-56.304C27.216-56.304 31.392-54.576 34.848-51.120C38.304-47.664 40.032-43.488 40.032-38.664C40.032-34.704 38.808-31.104 36.360-27.936C34.704-25.704 32.904-24.192 31.032-23.256ZM30.528-24.408C36.000-27.648 38.736-32.400 38.736-38.664C38.736-43.200 37.152-47.088 33.984-50.256C30.816-53.424 26.928-55.008 22.392-55.008L16.200-55.008L16.200-53.712L22.392-53.712C26.496-53.712 30.024-52.200 32.976-49.248C35.928-46.296 37.440-42.768 37.440-38.664C37.440-32.976 34.992-28.656 30.096-25.704ZM29.520-26.856C33.912-29.808 36.144-33.696 36.144-38.664C36.144-42.480 34.776-45.720 32.040-48.384C29.376-51.048 26.136-52.416 22.392-52.416L16.200-52.416L16.200-51.120L22.392-51.120C25.848-51.120 28.800-49.896 31.176-47.448C33.624-45.000 34.848-42.048 34.848-38.664C34.848-34.128 32.904-30.672 29.088-28.152ZM28.512-29.304C31.896-31.608 33.552-34.704 33.552-38.664C33.552-41.760 32.472-44.352 30.240-46.512C28.080-48.744 25.488-49.824 22.392-49.824L16.200-49.824L16.200-48.528L22.392-48.528C25.128-48.528 27.432-47.520 29.376-45.576C31.320-43.632 32.256-41.328 32.256-38.664C32.256-35.280 30.888-32.616 28.080-30.600ZM27.576-31.824C29.808-33.552 30.960-35.856 30.960-38.664C30.960-41.040 30.096-43.056 28.440-44.712C26.784-46.368 24.768-47.232 22.392-47.232L16.200-47.232L16.200-45.936L22.392-45.936C26.424-45.936 29.664-42.696 29.664-38.664C29.664-36.144 28.800-34.272 27.072-33.120ZM8.424-56.304L8.424 0L7.128 0L7.128-56.304ZM11.016-56.304L11.016 0L9.720 0L9.720-56.304ZM13.608-56.304L13.608 0L12.312 0L12.312-56.304ZM5.832-56.304L5.832 0L4.536 0L4.536-56.304Z"></path><path d="M44.244-56.304L44.244 0L42.948 0L42.948-56.304ZM52.020-56.304L52.020 0L50.724 0L50.724-56.304ZM49.428-56.304L49.428 0L48.132 0L48.132-56.304ZM46.836-56.304L46.836 0L45.540 0L45.540-56.304ZM54.612-24.984L54.612-23.688L70.236-23.688L70.236-22.392L54.612-22.392L54.612-11.664L75.636-11.664L75.636-10.368L54.612-10.368L54.612-9.072L75.636-9.072L75.636-7.776L54.612-7.776L54.612-6.480L75.636-6.480L75.636-5.184L54.612-5.184L54.612-3.888L75.636-3.888L75.636-2.592L54.612-2.592L54.612-1.296L75.636-1.296L75.636 0L53.316 0L53.316-56.304L75.636-56.304L75.636-55.008L54.612-55.008L54.612-53.712L75.636-53.712L75.636-52.416L54.612-52.416L54.612-51.120L75.636-51.120L75.636-49.824L54.612-49.824L54.612-48.528L75.636-48.528L75.636-47.232L54.612-47.232L54.612-45.936L75.636-45.936L75.636-44.712L54.612-44.712L54.612-34.056L70.236-34.056L70.236-32.760L54.612-32.760L54.612-31.464L70.236-31.464L70.236-30.168L54.612-30.168L54.612-28.872L70.236-28.872L70.236-27.576L54.612-27.576L54.612-26.280L70.236-26.280L70.236-24.984Z"></path><path d="M83.232-56.304L83.232 0L81.936 0L81.936-56.304ZM85.824-56.304L85.824 0L84.528 0L84.528-56.304ZM88.416-56.304L88.416 0L87.120 0L87.120-56.304ZM91.008-56.304L91.008 0L89.712 0L89.712-56.304ZM80.640-56.304L80.640 0L79.344 0L79.344-56.304Z"></path><path d="M126.036-45.000C124.596-45.216 123.444-45.288 122.580-45.288C117.900-45.288 113.868-43.632 110.484-40.248C107.100-36.864 105.444-32.832 105.444-28.152C105.444-23.472 107.100-19.440 110.484-16.056C113.868-12.672 117.900-11.016 122.580-11.016C123.732-11.016 124.884-11.160 126.036-11.448L126.036-10.080C125.100-9.864 123.948-9.720 122.580-9.720C117.468-9.720 113.148-11.520 109.548-15.120C105.948-18.720 104.148-23.040 104.148-28.152C104.148-33.264 105.948-37.656 109.548-41.184C113.148-44.784 117.468-46.584 122.580-46.584C123.876-46.584 125.028-46.512 126.036-46.296ZM126.036-47.592C125.028-47.808 123.876-47.880 122.580-47.880C117.180-47.880 112.500-45.936 108.612-42.048C104.796-38.232 102.852-33.552 102.852-28.152C102.852-22.752 104.796-18.072 108.612-14.184C112.500-10.368 117.180-8.424 122.580-8.424C123.948-8.424 125.100-8.568 126.036-8.784L126.036-7.488C125.100-7.272 123.948-7.128 122.580-7.128C116.748-7.128 111.780-9.144 107.676-13.248C103.572-17.352 101.556-22.320 101.556-28.152C101.556-33.984 103.572-38.880 107.676-42.984C111.780-47.088 116.748-49.176 122.580-49.176C123.876-49.176 125.028-49.104 126.036-48.888ZM126.036-50.184C125.100-50.400 123.948-50.472 122.580-50.472C116.460-50.472 111.204-48.312 106.812-43.920C102.420-39.528 100.260-34.272 100.260-28.152C100.260-22.032 102.420-16.776 106.812-12.384C111.204-7.992 116.460-5.832 122.580-5.832C123.876-5.832 125.028-5.904 126.036-6.120L126.036-4.824C125.028-4.608 123.876-4.536 122.580-4.536C116.028-4.536 110.484-6.840 105.876-11.448C101.268-16.056 98.964-21.600 98.964-28.152C98.964-34.704 101.268-40.248 105.876-44.856C110.484-49.464 116.028-51.768 122.580-51.768C123.732-51.768 124.884-51.696 126.036-51.552ZM126.036-52.848C124.884-52.992 123.732-53.064 122.580-53.064C115.740-53.064 109.836-50.616 104.940-45.720C100.116-40.896 97.668-34.992 97.668-28.152C97.668-21.312 100.116-15.408 104.940-10.512C109.836-5.688 115.740-3.240 122.580-3.240C123.372-3.240 124.524-3.312 126.036-3.528L126.036-2.232C124.524-2.016 123.372-1.944 122.580-1.944C115.308-1.944 109.116-4.464 104.004-9.576C98.892-14.688 96.372-20.880 96.372-28.152C96.372-35.424 98.892-41.544 104.004-46.656C109.116-51.768 115.308-54.360 122.580-54.360C123.732-54.360 124.884-54.288 126.036-54.144ZM126.036-55.440C124.884-55.584 123.732-55.656 122.580-55.656C115.020-55.656 108.540-52.992 103.140-47.592C97.740-42.192 95.076-35.712 95.076-28.152C95.076-20.592 97.740-14.184 103.140-8.784C108.540-3.384 115.020-0.720 122.580-0.720C123.732-0.720 124.884-0.792 126.036-0.936L126.036 0.360C124.884 0.504 123.732 0.576 122.580 0.576C114.588 0.576 107.820-2.232 102.204-7.776C96.660-13.392 93.852-20.160 93.852-28.152C93.852-36.144 96.660-42.912 102.204-48.528C107.820-54.144 114.588-56.952 122.580-56.952C123.732-56.952 124.884-56.880 126.036-56.736Z"></path><path d="M175.320-56.304L175.320 0L174.024 0L174.024-56.304ZM172.800-56.304L172.800 0L171.504 0L171.504-56.304ZM170.208-56.304L170.208 0L168.912 0L168.912-56.304ZM167.616-56.304L167.616 0L166.320 0L166.320-56.304ZM131.256-56.304L131.256 0L129.960 0L129.960-56.304ZM139.032-56.304L139.032 0L137.736 0L137.736-56.304ZM136.440-56.304L136.440 0L135.144 0L135.144-56.304ZM133.848-56.304L133.848 0L132.552 0L132.552-56.304ZM141.624-26.280L163.728-26.280L163.728-27.576L141.624-27.576ZM141.624-23.688L163.728-23.688L163.728-24.984L141.624-24.984ZM163.728-34.056L163.728-56.304L165.024-56.304L165.024 0L163.728 0L163.728-22.392L141.624-22.392L141.624 0L140.328 0L140.328-56.304L141.624-56.304L141.624-34.056ZM141.624-31.464L163.728-31.464L163.728-32.760L141.624-32.760ZM163.728-28.872L163.728-30.168L141.624-30.168L141.624-28.872Z"></path><path d="M180.756-56.304L180.756 0L179.460 0L179.460-56.304ZM188.532-56.304L188.532 0L187.236 0L187.236-56.304ZM185.940-56.304L185.940 0L184.644 0L184.644-56.304ZM183.348-56.304L183.348 0L182.052 0L182.052-56.304ZM191.124-24.984L191.124-23.688L206.748-23.688L206.748-22.392L191.124-22.392L191.124-11.664L212.148-11.664L212.148-10.368L191.124-10.368L191.124-9.072L212.148-9.072L212.148-7.776L191.124-7.776L191.124-6.480L212.148-6.480L212.148-5.184L191.124-5.184L191.124-3.888L212.148-3.888L212.148-2.592L191.124-2.592L191.124-1.296L212.148-1.296L212.148 0L189.828 0L189.828-56.304L212.148-56.304L212.148-55.008L191.124-55.008L191.124-53.712L212.148-53.712L212.148-52.416L191.124-52.416L191.124-51.120L212.148-51.120L212.148-49.824L191.124-49.824L191.124-48.528L212.148-48.528L212.148-47.232L191.124-47.232L191.124-45.936L212.148-45.936L212.148-44.712L191.124-44.712L191.124-34.056L206.748-34.056L206.748-32.760L191.124-32.760L191.124-31.464L206.748-31.464L206.748-30.168L191.124-30.168L191.124-28.872L206.748-28.872L206.748-27.576L191.124-27.576L191.124-26.280L206.748-26.280L206.748-24.984Z"></path><path d="M246.888-45.000C245.448-45.216 244.296-45.288 243.432-45.288C238.752-45.288 234.720-43.632 231.336-40.248C227.952-36.864 226.296-32.832 226.296-28.152C226.296-23.472 227.952-19.440 231.336-16.056C234.720-12.672 238.752-11.016 243.432-11.016C244.584-11.016 245.736-11.160 246.888-11.448L246.888-10.080C245.952-9.864 244.800-9.720 243.432-9.720C238.320-9.720 234.000-11.520 230.400-15.120C226.800-18.720 225.000-23.040 225.000-28.152C225.000-33.264 226.800-37.656 230.400-41.184C234.000-44.784 238.320-46.584 243.432-46.584C244.728-46.584 245.880-46.512 246.888-46.296ZM246.888-47.592C245.880-47.808 244.728-47.880 243.432-47.880C238.032-47.880 233.352-45.936 229.464-42.048C225.648-38.232 223.704-33.552 223.704-28.152C223.704-22.752 225.648-18.072 229.464-14.184C233.352-10.368 238.032-8.424 243.432-8.424C244.800-8.424 245.952-8.568 246.888-8.784L246.888-7.488C245.952-7.272 244.800-7.128 243.432-7.128C237.600-7.128 232.632-9.144 228.528-13.248C224.424-17.352 222.408-22.320 222.408-28.152C222.408-33.984 224.424-38.880 228.528-42.984C232.632-47.088 237.600-49.176 243.432-49.176C244.728-49.176 245.880-49.104 246.888-48.888ZM246.888-50.184C245.952-50.400 244.800-50.472 243.432-50.472C237.312-50.472 232.056-48.312 227.664-43.920C223.272-39.528 221.112-34.272 221.112-28.152C221.112-22.032 223.272-16.776 227.664-12.384C232.056-7.992 237.312-5.832 243.432-5.832C244.728-5.832 245.880-5.904 246.888-6.120L246.888-4.824C245.880-4.608 244.728-4.536 243.432-4.536C236.880-4.536 231.336-6.840 226.728-11.448C222.120-16.056 219.816-21.600 219.816-28.152C219.816-34.704 222.120-40.248 226.728-44.856C231.336-49.464 236.880-51.768 243.432-51.768C244.584-51.768 245.736-51.696 246.888-51.552ZM246.888-52.848C245.736-52.992 244.584-53.064 243.432-53.064C236.592-53.064 230.688-50.616 225.792-45.720C220.968-40.896 218.520-34.992 218.520-28.152C218.520-21.312 220.968-15.408 225.792-10.512C230.688-5.688 236.592-3.240 243.432-3.240C244.224-3.240 245.376-3.312 246.888-3.528L246.888-2.232C245.376-2.016 244.224-1.944 243.432-1.944C236.160-1.944 229.968-4.464 224.856-9.576C219.744-14.688 217.224-20.880 217.224-28.152C217.224-35.424 219.744-41.544 224.856-46.656C229.968-51.768 236.160-54.360 243.432-54.360C244.584-54.360 245.736-54.288 246.888-54.144ZM246.888-55.440C245.736-55.584 244.584-55.656 243.432-55.656C235.872-55.656 229.392-52.992 223.992-47.592C218.592-42.192 215.928-35.712 215.928-28.152C215.928-20.592 218.592-14.184 223.992-8.784C229.392-3.384 235.872-0.720 243.432-0.720C244.584-0.720 245.736-0.792 246.888-0.936L246.888 0.360C245.736 0.504 244.584 0.576 243.432 0.576C235.440 0.576 228.672-2.232 223.056-7.776C217.512-13.392 214.704-20.160 214.704-28.152C214.704-36.144 217.512-42.912 223.056-48.528C228.672-54.144 235.440-56.952 243.432-56.952C244.584-56.952 245.736-56.880 246.888-56.736Z"></path><path d="M268.164-36.288L282.708-56.304L284.364-56.304L269.892-36.288L270.684-35.208L285.948-56.304L287.532-56.304L271.476-34.200L272.340-33.120L289.116-56.304L290.700-56.304L273.132-32.040L273.924-30.888L292.428-56.304L293.940-56.304L274.716-29.880L275.508-28.800L295.524-56.304L297.108-56.304L276.372-27.720L297.180 0L295.668 0ZM262.476 0L261.180 0L261.180-56.304L262.476-56.304L262.476-28.872L284.220 0L282.636 0L262.476-26.712ZM264.204-30.816L287.460 0L285.876 0L263.484-29.736ZM265.860-33.120L290.700 0L289.116 0L264.996-31.968ZM267.444-35.208L293.940 0L292.356 0L266.580-34.128ZM254.700-56.304L254.700 0L253.404 0L253.404-56.304ZM257.292-56.304L257.292 0L255.996 0L255.996-56.304ZM259.884-56.304L259.884 0L258.588 0L258.588-56.304ZM252.108-56.304L252.108 0L250.812 0L250.812-56.304Z"></path></g></g><g transform="translate(-353.1244912646466 -168.82802042642047) scale(3.637750892048253)" id="logomark"><g fill="#FFFFFF"><path d="M29.1 36.1c0 .1 0 .1 0 0zM88.6 20.1c-4.2-.7-8.8-1.2-13.6-1.2-4.8 0-9.4.4-13.6 1.2L25.5 71.3h27.3l35.8-51.2zM29.1 36.1c-4.2-.7-8.8-1.2-13.6-1.2s-9.4.4-13.6 1.2l22.6 33.6 13.9-19.9-9.3-13.7z"></path></g></g></g></g></svg>